/* XPM */
static char * close_prelight_xpm[] = {
"24 25 15 1",
" 	c None",
".	c #242424",
"+	c #B7B7B7",
"@	c #BABABA",
"#	c #F8F8F8",
"$	c #E7E7E7",
"%	c #E2E2E2",
"&	c #C0C0C0",
"*	c #E8E8E8",
"=	c #EDEDED",
"-	c #F5F5F5",
";	c #F7F7F7",
">	c #BBBBBB",
",	c #C5C5C5",
"'	c #C2C2C2",
"........................",
"........................",
"........................",
"........................",
"........................",
"........................",
"........................",
"........................",
"........+.....@.........",
".......+#$...%#&........",
"........*#$.%#=.........",
".........*#-#=..........",
"..........-#;...........",
".........%#;#$..........",
"........%#=.*#$.........",
".......>#=...*#,........",
"........'.....,.........",
"........................",
"........................",
"........................",
"........................",
"........................",
"........................",
"........................",
"........................"};
