/* XPM */
static char * close_active_xpm[] = {
"24 25 17 1",
" 	c None",
".	c #424242",
"+	c #202020",
"@	c #6B6B6B",
"#	c #6F6F6F",
"$	c #BEBEBE",
"%	c #A8A8A8",
"&	c #A2A2A2",
"*	c #777777",
"=	c #AAAAAA",
"-	c #B0B0B0",
";	c #BABABA",
">	c #BCBCBC",
",	c #595959",
"'	c #717171",
")	c #7E7E7E",
"!	c #797979",
"........................",
"++++++++++++++++++++++++",
"++++++++++++++++++++++++",
"++++++++++++++++++++++++",
"++++++++++++++++++++++++",
"++++++++++++++++++++++++",
"++++++++++++++++++++++++",
"++++++++++++++++++++++++",
"++++++++@+++++#+++++++++",
"+++++++@$%+++&$*++++++++",
"++++++++=$%+&$-+++++++++",
"+++++++++=$;$-++++++++++",
"++++++++++;$>,++++++++++",
"+++++++++&$>$%++++++++++",
"++++++++&$-,=$%+++++++++",
"+++++++'$-+++=$)++++++++",
"++++++++!+++++)+++++++++",
"++++++++++++++++++++++++",
"++++++++++++++++++++++++",
"++++++++++++++++++++++++",
"++++++++++++++++++++++++",
"++++++++++++++++++++++++",
"++++++++++++++++++++++++",
"++++++++++++++++++++++++",
"++++++++++++++++++++++++"};
